<svg xmlns="http://www.w3.org/2000/svg" xmlns:xlink="http://www.w3.org/1999/xlink" version="1.1" x="0px" y="0px" viewBox="0 0 100 125" style="enable-background:new 0 0 100 100;" xml:space="preserve"><g><path d="M50,0C22.386,0,0,22.386,0,50s22.386,50,50,50s50-22.386,50-50S77.614,0,50,0z M79.645,78.268   c-14.236,14.929-37.048,16.754-53.373,5.124l14.644-14.644c-2.188,1.347-4.759,2.127-7.511,2.127c-3.625,0-6.937-1.352-9.468-3.573   l-6.952,6.952C5.417,58.547,6.429,36.338,20.356,21.732C34.745,6.644,57.896,4.938,74.253,16.985L59.669,31.568   c0.665-0.253,1.406-0.516,2.239-0.788c1.23-0.401,2.438-0.605,3.589-0.605c3.368,0,5.547,1.706,6.464,3.302   c0.528,0.922,0.861,1.985,0.966,3.076c0-0.001,0.002,0.017,0.002,0.017c-0.001-0.005-0.001-0.011-0.002-0.017   c0.007,0.058,0.007,0.115,0.011,0.172l10.455-10.455C94.557,41.944,93.417,63.824,79.645,78.268z M70.276,44.579   c-1.437,0-2.813,0.254-4.087,0.719l-2.472-4.37l1.527-2.897h4.114c0.313,0,1.262-0.135,1.142-1.202   c-0.013-0.11-0.072-1.115-0.658-2.136c-0.813-1.418-3.313-2.851-7.178-1.591c-2.25,0.733-6.028,2.203-6.507,3.246   c-0.562,1.224,0.539,1.683,1.021,1.683h5.48l-0.928,1.76H43.741l1.893-3.621c1.058-0.147,1.872-1.055,1.872-2.153   c0-1.201-0.974-2.174-2.174-2.174c-0.453,0-0.874,0.138-1.222,0.375c-0.911-0.127-2.096-0.258-3.386-0.31   c-3.898-0.157-6.75,0.474-8.479,1.876c-1.241,1.007-1.898,2.798-1.898,4.112c0,3.326,2.613,4.992,5.367,5.02   c0.004,0,0.008,0,0.012,0c0.626,0,1.137-0.504,1.144-1.131c0.006-0.632-0.5-1.149-1.132-1.156   c-1.309-0.013-3.103-1.026-3.103-2.732c0-1.012,0.334-1.754,1.051-2.335c2.018-1.639,6.475-1.527,9.506-1.162   c0.055,0.31,0.175,0.596,0.346,0.845L38.145,45.56c-1.453-0.63-3.056-0.98-4.741-0.98c-6.587,0-11.927,5.34-11.927,11.928   c0,6.587,5.34,11.927,11.927,11.927s11.927-5.34,11.927-11.927c0-4.085-2.054-7.689-5.185-9.839l1.983-3.793l8.972,11.502   c-0.609,0.662-0.982,1.546-0.982,2.517c0,2.053,1.664,3.716,3.717,3.716c1.793,0,3.289-1.269,3.639-2.958h0.93   c0.575,6.051,5.67,10.783,11.872,10.783c6.587,0,11.927-5.34,11.927-11.927C82.203,49.919,76.863,44.579,70.276,44.579z    M41.989,56.507c0,4.741-3.844,8.585-8.585,8.585s-8.585-3.844-8.585-8.585s3.844-8.585,8.585-8.585   c1.126,0,2.201,0.217,3.187,0.611L32.7,55.977c-0.292,0.561-0.096,1.294,0.484,1.543c0.805,0.348,1.339-0.093,1.543-0.483   l3.856-7.377C40.652,51.227,41.989,53.711,41.989,56.507z M65.768,49.2l3.484,6.163h-7.484   C62.113,52.758,63.629,50.523,65.768,49.2z M54.631,53.262c-0.361-0.146-1.076-0.142-1.51-0.016L44.41,42.078h16.117L54.631,53.262   z M57.223,55.363c-0.157-0.347-0.365-0.665-0.615-0.945l5.843-11.085l1.671,2.956c-3.151,1.902-5.351,5.221-5.717,9.075H57.223z    M70.276,65.092c-4.354,0-7.95-3.241-8.509-7.441h9.444c0.407,0,0.782-0.217,0.987-0.567c0.205-0.352,0.208-0.785,0.008-1.14   l-4.341-7.678c0.765-0.224,1.573-0.344,2.41-0.344c4.741,0,8.585,3.844,8.585,8.585S75.018,65.092,70.276,65.092z"/></g></svg>